STARTFONT 2.1
FONT -Adobe-ITC Avant Garde Gothic-Demi-R-Normal--8-80-75-75-P-51-ISO8859-1
SIZE 8 75 75
FONTBOUNDINGBOX 17 11 -1 -2
COMMENT +
COMMENT Copyright (c) 1984, 1987, 1991 Adobe Systems Incorporated.  
COMMENT All Rights Reserved.
COMMENT 
COMMENT Copyright (c) 1988, 1991 Digital Equipment Corporation.  
COMMENT All Rights Reserved.  Unpublished rights reserved under the 
COMMENT copyright laws of the United States.
COMMENT 
COMMENT Adobe is a registered trademark of Adobe Systems Incorporated.
COMMENT 
COMMENT ITC Avant Garde Gothic is a registered trademark of International 
COMMENT Typeface Corporation.
COMMENT 
COMMENT Permission to use these trademarks is hereby granted only in 
COMMENT association with the images described in this file.
COMMENT -
STARTPROPERTIES 28
FOUNDRY "Adobe"
FAMILY_NAME "ITC Avant Garde Gothic"
WEIGHT_NAME "Demi"
SLANT "R"
SETWIDTH_NAME "Normal"
ADD_STYLE_NAME ""
PIXEL_SIZE 8
POINT_SIZE 80
RESOLUTION_X 75
RESOLUTION_Y 75
SPACING "P"
AVERAGE_WIDTH 51
CHARSET_REGISTRY "ISO8859"
CHARSET_ENCODING "1"
CAP_HEIGHT 6
X_HEIGHT 5
FONT_ASCENT 8
FONT_DESCENT 2
FACE_NAME "ITC Avant Garde Gothic Demi"
COPYRIGHT "Copyright (c) 1984, 1987 Adobe Systems Incorporated. All Rights Reserved. Copyright (c) 1988, 1991 Digital Equipment Corporation. All Rights Reserved."
NOTICE "ITC Avant Garde Gothic is a registered trademark of International Typeface Corporation."
_DEC_DEVICE_FONTNAMES "PS=AvantGarde-Demi"
_DEC_PRODUCTINFO "DECwindows Fonts V2.2, 07-Nov-1991"
DEFAULT_CHAR 32
RELATIVE_SETWIDTH 50
RELATIVE_WEIGHT 60
CHARSET_COLLECTIONS "ASCII ISO8859-1 ADOBE-STANDARD"
FULL_NAME "ITC Avant Garde Gothic Demi"
ENDPROPERTIES
CHARS 229
STARTCHAR A
ENCODING 65
SWIDTH 740 0
DWIDTH 6 0
BBX 5 6 0 0
BITMAP
20
70
50
F8
D8
D8
ENDCHAR
STARTCHAR AE
ENCODING 198
SWIDTH 900 0
DWIDTH 8 0
BBX 7 6 0 0
BITMAP
1E
3C
2E
7C
6C
EE
ENDCHAR
STARTCHAR Aacute
ENCODING 193
SWIDTH 740 0
DWIDTH 6 0
BBX 5 9 0 0
BITMAP
30
60
00
20
70
50
F8
D8
D8
ENDCHAR
STARTCHAR Acircumflex
ENCODING 194
SWIDTH 740 0
DWIDTH 6 0
BBX 5 9 0 0
BITMAP
20
70
00
20
70
50
F8
D8
D8
ENDCHAR
STARTCHAR Adieresis
ENCODING 196
SWIDTH 740 0
DWIDTH 6 0
BBX 5 9 0 0
BITMAP
50
50
00
20
70
50
F8
D8
D8
ENDCHAR
STARTCHAR Agrave
ENCODING 192
SWIDTH 740 0
DWIDTH 6 0
BBX 5 9 0 0
BITMAP
60
30
00
20
70
50
F8
D8
D8
ENDCHAR
STARTCHAR Aring
ENCODING 197
SWIDTH 740 0
DWIDTH 6 0
BBX 5 9 0 0
BITMAP
20
50
20
20
70
50
F8
D8
D8
ENDCHAR
STARTCHAR Atilde
ENCODING 195
SWIDTH 740 0
DWIDTH 6 0
BBX 5 9 0 0
BITMAP
28
70
00
20
70
50
F8
D8
D8
ENDCHAR
STARTCHAR B
ENCODING 66
SWIDTH 580 0
DWIDTH 5 0
BBX 4 6 0 0
BITMAP
E0
D0
E0
F0
D0
E0
ENDCHAR
STARTCHAR C
ENCODING 67
SWIDTH 780 0
DWIDTH 6 0
BBX 5 6 0 0
BITMAP
70
D8
C0
D8
D8
70
ENDCHAR
STARTCHAR Ccedilla
ENCODING 199
SWIDTH 780 0
DWIDTH 6 0
BBX 5 7 0 -1
BITMAP
70
D8
C0
D8
70
30
60
ENDCHAR
STARTCHAR D
ENCODING 68
SWIDTH 700 0
DWIDTH 6 0
BBX 5 6 0 0
BITMAP
F0
D8
D8
D8
D8
F0
ENDCHAR
STARTCHAR E
ENCODING 69
SWIDTH 520 0
DWIDTH 4 0
BBX 3 6 0 0
BITMAP
E0
C0
E0
C0
C0
E0
ENDCHAR
STARTCHAR Eacute
ENCODING 201
SWIDTH 520 0
DWIDTH 4 0
BBX 3 9 0 0
BITMAP
60
C0
00
E0
C0
E0
C0
C0
E0
ENDCHAR
STARTCHAR Ecircumflex
ENCODING 202
SWIDTH 520 0
DWIDTH 4 0
BBX 3 9 0 0
BITMAP
40
E0
00
E0
C0
E0
C0
C0
E0
ENDCHAR
STARTCHAR Edieresis
ENCODING 203
SWIDTH 520 0
DWIDTH 4 0
BBX 3 9 0 0
BITMAP
A0
A0
00
E0
C0
E0
C0
C0
E0
ENDCHAR
STARTCHAR Egrave
ENCODING 200
SWIDTH 520 0
DWIDTH 4 0
BBX 3 9 0 0
BITMAP
C0
60
00
E0
C0
E0
C0
C0
E0
ENDCHAR
STARTCHAR Eth
ENCODING 208
SWIDTH 742 0
DWIDTH 6 0
BBX 6 6 -1 0
BITMAP
78
6C
EC
6C
6C
78
ENDCHAR
STARTCHAR F
ENCODING 70
SWIDTH 480 0
DWIDTH 4 0
BBX 3 6 0 0
BITMAP
E0
C0
E0
C0
C0
C0
ENDCHAR
STARTCHAR G
ENCODING 71
SWIDTH 840 0
DWIDTH 6 0
BBX 6 6 0 0
BITMAP
78
C4
C0
DC
CC
78
ENDCHAR
STARTCHAR H
ENCODING 72
SWIDTH 680 0
DWIDTH 6 0
BBX 5 6 0 0
BITMAP
D8
D8
F8
D8
D8
D8
ENDCHAR
STARTCHAR I
ENCODING 73
SWIDTH 280 0
DWIDTH 2 0
BBX 1 6 0 0
BITMAP
80
80
80
80
80
80
ENDCHAR
STARTCHAR Iacute
ENCODING 205
SWIDTH 280 0
DWIDTH 2 0
BBX 3 9 -1 0
BITMAP
60
C0
00
40
40
40
40
40
40
ENDCHAR
STARTCHAR Icircumflex
ENCODING 206
SWIDTH 280 0
DWIDTH 2 0
BBX 3 9 -1 0
BITMAP
40
E0
00
40
40
40
40
40
40
ENDCHAR
STARTCHAR Idieresis
ENCODING 207
SWIDTH 280 0
DWIDTH 2 0
BBX 3 9 -1 0
BITMAP
A0
A0
00
40
40
40
40
40
40
ENDCHAR
STARTCHAR Igrave
ENCODING 204
SWIDTH 280 0
DWIDTH 2 0
BBX 3 9 -1 0
BITMAP
C0
60
00
40
40
40
40
40
40
ENDCHAR
STARTCHAR J
ENCODING 74
SWIDTH 480 0
DWIDTH 5 0
BBX 4 6 0 0
BITMAP
30
30
30
30
B0
60
ENDCHAR
STARTCHAR K
ENCODING 75
SWIDTH 620 0
DWIDTH 6 0
BBX 5 6 0 0
BITMAP
D8
D0
E0
F0
D8
D8
ENDCHAR
STARTCHAR L
ENCODING 76
SWIDTH 440 0
DWIDTH 4 0
BBX 3 6 0 0
BITMAP
C0
C0
C0
C0
C0
E0
ENDCHAR
STARTCHAR Lslash
ENCODING -1
SWIDTH 480 0
DWIDTH 6 0
BBX 5 8 0 0
BITMAP
60
60
70
70
E0
E0
78
78
ENDCHAR
STARTCHAR M
ENCODING 77
SWIDTH 900 0
DWIDTH 7 0
BBX 6 6 0 0
BITMAP
C4
EC
FC
D4
D4
D4
ENDCHAR
STARTCHAR N
ENCODING 78
SWIDTH 740 0
DWIDTH 6 0
BBX 5 6 0 0
BITMAP
88
C8
E8
F8
D8
C8
ENDCHAR
STARTCHAR Ntilde
ENCODING 209
SWIDTH 740 0
DWIDTH 6 0
BBX 5 9 0 0
BITMAP
28
70
00
88
C8
E8
F8
D8
C8
ENDCHAR
STARTCHAR O
ENCODING 79
SWIDTH 840 0
DWIDTH 7 0
BBX 6 6 0 0
BITMAP
78
CC
CC
CC
CC
78
ENDCHAR
STARTCHAR OE
ENCODING -1
SWIDTH 1060 0
DWIDTH 12 0
BBX 11 8 0 0
BITMAP
3BE0
7FE0
C700
C3E0
C3E0
C700
7FE0
3BE0
ENDCHAR
STARTCHAR Oacute
ENCODING 211
SWIDTH 840 0
DWIDTH 7 0
BBX 6 9 0 0
BITMAP
18
30
00
78
CC
CC
CC
CC
78
ENDCHAR
STARTCHAR Ocircumflex
ENCODING 212
SWIDTH 840 0
DWIDTH 7 0
BBX 6 9 0 0
BITMAP
10
38
00
78
CC
CC
CC
CC
78
ENDCHAR
STARTCHAR Odieresis
ENCODING 214
SWIDTH 840 0
DWIDTH 7 0
BBX 6 9 0 0
BITMAP
48
48
00
78
CC
CC
CC
CC
78
ENDCHAR
STARTCHAR Ograve
ENCODING 210
SWIDTH 840 0
DWIDTH 7 0
BBX 6 9 0 0
BITMAP
60
30
00
78
CC
CC
CC
CC
78
ENDCHAR
STARTCHAR Oslash
ENCODING 216
SWIDTH 840 0
DWIDTH 7 0
BBX 6 6 0 0
BITMAP
7C
CC
DC
EC
CC
F8
ENDCHAR
STARTCHAR Otilde
ENCODING 213
SWIDTH 840 0
DWIDTH 7 0
BBX 6 9 0 0
BITMAP
14
38
00
78
CC
CC
CC
CC
78
ENDCHAR
STARTCHAR P
ENCODING 80
SWIDTH 560 0
DWIDTH 5 0
BBX 4 6 0 0
BITMAP
E0
D0
D0
E0
C0
C0
ENDCHAR
STARTCHAR Q
ENCODING 81
SWIDTH 840 0
DWIDTH 7 0
BBX 7 6 0 0
BITMAP
78
CC
CC
DC
EC
7E
ENDCHAR
STARTCHAR R
ENCODING 82
SWIDTH 580 0
DWIDTH 5 0
BBX 5 6 0 0
BITMAP
E0
D0
D0
E0
D0
D8
ENDCHAR
STARTCHAR S
ENCODING 83
SWIDTH 520 0
DWIDTH 5 0
BBX 4 6 0 0
BITMAP
70
C0
60
30
30
E0
ENDCHAR
STARTCHAR Scaron
ENCODING -1
SWIDTH 520 0
DWIDTH 6 0
BBX 5 9 0 0
BITMAP
D0
60
70
F8
C0
70
18
F8
70
ENDCHAR
STARTCHAR T
ENCODING 84
SWIDTH 420 0
DWIDTH 4 0
BBX 3 6 0 0
BITMAP
E0
60
60
60
60
60
ENDCHAR
STARTCHAR Thorn
ENCODING 222
SWIDTH 560 0
DWIDTH 5 0
BBX 4 6 0 0
BITMAP
C0
E0
D0
D0
E0
C0
ENDCHAR
STARTCHAR U
ENCODING 85
SWIDTH 640 0
DWIDTH 6 0
BBX 5 6 0 0
BITMAP
D8
D8
D8
D8
D8
70
ENDCHAR
STARTCHAR Uacute
ENCODING 218
SWIDTH 640 0
DWIDTH 6 0
BBX 5 9 0 0
BITMAP
18
30
00
D8
D8
D8
D8
D8
70
ENDCHAR
STARTCHAR Ucircumflex
ENCODING 219
SWIDTH 640 0
DWIDTH 6 0
BBX 5 9 0 0
BITMAP
20
70
00
D8
D8
D8
D8
D8
70
ENDCHAR
STARTCHAR Udieresis
ENCODING 220
SWIDTH 640 0
DWIDTH 6 0
BBX 5 9 0 0
BITMAP
50
50
00
D8
D8
D8
D8
D8
70
ENDCHAR
STARTCHAR Ugrave
ENCODING 217
SWIDTH 640 0
DWIDTH 6 0
BBX 5 9 0 0
BITMAP
60
30
00
D8
D8
D8
D8
D8
70
ENDCHAR
STARTCHAR V
ENCODING 86
SWIDTH 700 0
DWIDTH 6 0
BBX 6 6 0 0
BITMAP
CC
CC
58
70
30
20
ENDCHAR
STARTCHAR W
ENCODING 87
SWIDTH 900 0
DWIDTH 7 0
BBX 6 6 0 0
BITMAP
B4
B4
B4
B4
FC
CC
ENDCHAR
STARTCHAR X
ENCODING 88
SWIDTH 680 0
DWIDTH 5 0
BBX 4 6 0 0
BITMAP
D0
F0
60
F0
F0
B0
ENDCHAR
STARTCHAR Y
ENCODING 89
SWIDTH 620 0
DWIDTH 6 0
BBX 5 6 0 0
BITMAP
D8
50
70
70
20
20
ENDCHAR
STARTCHAR Yacute
ENCODING 221
SWIDTH 620 0
DWIDTH 6 0
BBX 5 9 0 0
BITMAP
18
30
00
D8
50
70
70
20
20
ENDCHAR
STARTCHAR Ydieresis
ENCODING -1
SWIDTH 620 0
DWIDTH 7 0
BBX 6 9 0 0
BITMAP
50
50
CC
CC
78
78
30
30
30
ENDCHAR
STARTCHAR Z
ENCODING 90
SWIDTH 500 0
DWIDTH 5 0
BBX 4 6 0 0
BITMAP
F0
30
20
40
C0
F0
ENDCHAR
STARTCHAR Zcaron
ENCODING -1
SWIDTH 500 0
DWIDTH 6 0
BBX 5 9 0 0
BITMAP
D0
60
F8
F8
30
60
C0
F8
F8
ENDCHAR
STARTCHAR a
ENCODING 97
SWIDTH 660 0
DWIDTH 6 0
BBX 5 5 0 0
BITMAP
78
D8
D8
D8
68
ENDCHAR
STARTCHAR aacute
ENCODING 225
SWIDTH 660 0
DWIDTH 6 0
BBX 5 8 0 0
BITMAP
18
30
00
78
D8
D8
D8
68
ENDCHAR
STARTCHAR acircumflex
ENCODING 226
SWIDTH 660 0
DWIDTH 6 0
BBX 5 8 0 0
BITMAP
20
70
00
78
D8
D8
D8
68
ENDCHAR
STARTCHAR acute
ENCODING 180
SWIDTH 420 0
DWIDTH 4 0
BBX 3 2 0 5
BITMAP
60
C0
ENDCHAR
STARTCHAR adieresis
ENCODING 228
SWIDTH 660 0
DWIDTH 6 0
BBX 5 8 0 0
BITMAP
28
70
00
78
D8
D8
D8
68
ENDCHAR
STARTCHAR ae
ENCODING 230
SWIDTH 1080 0
DWIDTH 8 0
BBX 7 5 0 0
BITMAP
7C
DA
DE
D8
6E
ENDCHAR
STARTCHAR agrave
ENCODING 224
SWIDTH 660 0
DWIDTH 6 0
BBX 5 8 0 0
BITMAP
60
30
00
78
D8
D8
D8
68
ENDCHAR
STARTCHAR ampersand
ENCODING 38
SWIDTH 680 0
DWIDTH 7 0
BBX 6 6 0 0
BITMAP
30
68
30
74
D8
64
ENDCHAR
STARTCHAR aring
ENCODING 229
SWIDTH 660 0
DWIDTH 6 0
BBX 5 8 0 0
BITMAP
20
50
20
78
D8
D8
D8
68
ENDCHAR
STARTCHAR asciicircum
ENCODING 94
SWIDTH 600 0
DWIDTH 6 0
BBX 4 4 1 2
BITMAP
60
60
90
90
ENDCHAR
STARTCHAR asciitilde
ENCODING 126
SWIDTH 600 0
DWIDTH 6 0
BBX 5 2 0 2
BITMAP
68
B0
ENDCHAR
STARTCHAR asterisk
ENCODING 42
SWIDTH 440 0
DWIDTH 4 0
BBX 3 3 0 3
BITMAP
40
E0
40
ENDCHAR
STARTCHAR at
ENCODING 64
SWIDTH 740 0
DWIDTH 8 0
BBX 7 7 0 0
BITMAP
3C
42
9A
AA
BC
40
3C
ENDCHAR
STARTCHAR atilde
ENCODING 227
SWIDTH 660 0
DWIDTH 6 0
BBX 5 8 0 0
BITMAP
50
50
00
78
D8
D8
D8
68
ENDCHAR
STARTCHAR b
ENCODING 98
SWIDTH 660 0
DWIDTH 6 0
BBX 5 7 0 0
BITMAP
C0
C0
F0
D8
D8
D8
F0
ENDCHAR
STARTCHAR backslash
ENCODING 92
SWIDTH 640 0
DWIDTH 6 0
BBX 3 7 1 0
BITMAP
80
80
40
40
40
20
20
ENDCHAR
STARTCHAR bar
ENCODING 124
SWIDTH 600 0
DWIDTH 4 0
BBX 1 6 2 0
BITMAP
80
80
80
80
80
80
ENDCHAR
STARTCHAR braceleft
ENCODING 123
SWIDTH 340 0
DWIDTH 4 0
BBX 3 8 0 -2
BITMAP
20
60
60
C0
60
60
60
20
ENDCHAR
STARTCHAR braceright
ENCODING 125
SWIDTH 340 0
DWIDTH 4 0
BBX 3 8 0 -2
BITMAP
80
C0
C0
60
C0
C0
C0
80
ENDCHAR
STARTCHAR bracketleft
ENCODING 91
SWIDTH 320 0
DWIDTH 3 0
BBX 3 7 0 -1
BITMAP
E0
C0
C0
C0
C0
C0
E0
ENDCHAR
STARTCHAR bracketright
ENCODING 93
SWIDTH 320 0
DWIDTH 3 0
BBX 3 7 -1 -1
BITMAP
E0
60
60
60
60
60
E0
ENDCHAR
STARTCHAR breve
ENCODING -1
SWIDTH 480 0
DWIDTH 5 0
BBX 4 2 0 7
BITMAP
90
60
ENDCHAR
STARTCHAR brokenbar
ENCODING 166
SWIDTH 600 0
DWIDTH 4 0
BBX 1 6 2 0
BITMAP
80
80
00
80
80
80
ENDCHAR
STARTCHAR bullet
ENCODING -1
SWIDTH 600 0
DWIDTH 6 0
BBX 2 2 2 2
BITMAP
C0
C0
ENDCHAR
STARTCHAR c
ENCODING 99
SWIDTH 640 0
DWIDTH 5 0
BBX 4 5 0 0
BITMAP
60
D0
C0
D0
60
ENDCHAR
STARTCHAR caron
ENCODING -1
SWIDTH 540 0
DWIDTH 6 0
BBX 4 2 1 7
BITMAP
D0
60
ENDCHAR
STARTCHAR ccedilla
ENCODING 231
SWIDTH 640 0
DWIDTH 5 0
BBX 4 7 0 -2
BITMAP
60
D0
C0
D0
60
30
60
ENDCHAR
STARTCHAR cedilla
ENCODING 184
SWIDTH 340 0
DWIDTH 3 0
BBX 3 3 0 -2
BITMAP
40
60
C0
ENDCHAR
STARTCHAR cent
ENCODING 162
SWIDTH 560 0
DWIDTH 5 0
BBX 4 6 0 0
BITMAP
20
70
C0
C0
70
20
ENDCHAR
STARTCHAR circumflex
ENCODING -1
SWIDTH 540 0
DWIDTH 5 0
BBX 4 2 0 7
BITMAP
60
D0
ENDCHAR
STARTCHAR colon
ENCODING 58
SWIDTH 280 0
DWIDTH 2 0
BBX 1 5 0 0
BITMAP
80
80
00
80
80
ENDCHAR
STARTCHAR comma
ENCODING 44
SWIDTH 280 0
DWIDTH 2 0
BBX 2 3 -1 -1
BITMAP
40
40
80
ENDCHAR
STARTCHAR copyright
ENCODING 169
SWIDTH 740 0
DWIDTH 8 0
BBX 6 7 1 0
BITMAP
30
48
B4
A4
B4
48
30
ENDCHAR
STARTCHAR currency
ENCODING 164
SWIDTH 600 0
DWIDTH 6 0
BBX 5 4 0 2
BITMAP
A8
70
70
A8
ENDCHAR
STARTCHAR d
ENCODING 100
SWIDTH 660 0
DWIDTH 6 0
BBX 5 7 0 0
BITMAP
18
18
78
D8
D8
D8
78
ENDCHAR
STARTCHAR dagger
ENCODING -1
SWIDTH 560 0
DWIDTH 6 0
BBX 4 10 1 -2
BITMAP
60
60
F0
60
60
60
60
60
60
60
ENDCHAR
STARTCHAR daggerdbl
ENCODING -1
SWIDTH 560 0
DWIDTH 6 0
BBX 4 10 1 -2
BITMAP
60
60
F0
60
F0
60
60
60
60
60
ENDCHAR
STARTCHAR degree
ENCODING 176
SWIDTH 400 0
DWIDTH 3 0
BBX 3 3 0 3
BITMAP
E0
A0
E0
ENDCHAR
STARTCHAR dieresis
ENCODING 168
SWIDTH 500 0
DWIDTH 4 0
BBX 3 2 0 4
BITMAP
A0
A0
ENDCHAR
STARTCHAR divide
ENCODING 247
SWIDTH 600 0
DWIDTH 5 0
BBX 4 5 0 0
BITMAP
20
00
F0
00
20
ENDCHAR
STARTCHAR dollar
ENCODING 36
SWIDTH 560 0
DWIDTH 5 0
BBX 4 8 0 -1
BITMAP
20
20
70
E0
60
B0
E0
20
ENDCHAR
STARTCHAR dotaccent
ENCODING -1
SWIDTH 280 0
DWIDTH 3 0
BBX 1 2 1 7
BITMAP
80
80
ENDCHAR
STARTCHAR dotlessi
ENCODING -1
SWIDTH 240 0
DWIDTH 3 0
BBX 2 6 0 0
BITMAP
C0
C0
C0
C0
C0
C0
ENDCHAR
STARTCHAR e
ENCODING 101
SWIDTH 640 0
DWIDTH 5 0
BBX 4 5 0 0
BITMAP
60
D0
F0
C0
70
ENDCHAR
STARTCHAR eacute
ENCODING 233
SWIDTH 640 0
DWIDTH 5 0
BBX 4 8 0 0
BITMAP
30
60
00
60
D0
F0
C0
70
ENDCHAR
STARTCHAR ecircumflex
ENCODING 234
SWIDTH 640 0
DWIDTH 5 0
BBX 4 8 0 0
BITMAP
20
70
00
60
D0
F0
C0
70
ENDCHAR
STARTCHAR edieresis
ENCODING 235
SWIDTH 640 0
DWIDTH 5 0
BBX 4 8 0 0
BITMAP
50
50
00
60
D0
F0
C0
70
ENDCHAR
STARTCHAR egrave
ENCODING 232
SWIDTH 640 0
DWIDTH 5 0
BBX 4 8 0 0
BITMAP
C0
60
00
60
D0
F0
C0
70
ENDCHAR
STARTCHAR eight
ENCODING 56
SWIDTH 560 0
DWIDTH 5 0
BBX 4 6 0 0
BITMAP
60
D0
60
D0
D0
60
ENDCHAR
STARTCHAR ellipsis
ENCODING -1
SWIDTH 1000 0
DWIDTH 9 0
BBX 8 2 0 0
BITMAP
DB
DB
ENDCHAR
STARTCHAR emdash
ENCODING -1
SWIDTH 1000 0
DWIDTH 10 0
BBX 10 1 0 3
BITMAP
FFC0
ENDCHAR
STARTCHAR endash
ENCODING -1
SWIDTH 500 0
DWIDTH 5 0
BBX 5 1 0 3
BITMAP
F8
ENDCHAR
STARTCHAR equal
ENCODING 61
SWIDTH 600 0
DWIDTH 5 0
BBX 4 2 0 2
BITMAP
F0
F0
ENDCHAR
STARTCHAR eth
ENCODING 240
SWIDTH 640 0
DWIDTH 6 0
BBX 5 8 0 0
BITMAP
80
70
E0
70
D8
D8
D8
70
ENDCHAR
STARTCHAR exclam
ENCODING 33
SWIDTH 280 0
DWIDTH 2 0
BBX 1 6 0 0
BITMAP
80
80
80
80
00
80
ENDCHAR
STARTCHAR exclamdown
ENCODING 161
SWIDTH 280 0
DWIDTH 2 0
BBX 1 7 0 -2
BITMAP
80
00
80
80
80
80
80
ENDCHAR
STARTCHAR f
ENCODING 102
SWIDTH 280 0
DWIDTH 2 0
BBX 3 7 -1 0
BITMAP
20
40
E0
40
40
40
40
ENDCHAR
STARTCHAR fi
ENCODING -1
SWIDTH 520 0
DWIDTH 6 0
BBX 6 8 -1 0
BITMAP
3C
60
FC
6C
6C
6C
6C
6C
ENDCHAR
STARTCHAR five
ENCODING 53
SWIDTH 560 0
DWIDTH 5 0
BBX 4 6 0 0
BITMAP
70
40
E0
F0
30
E0
ENDCHAR
STARTCHAR fl
ENCODING -1
SWIDTH 520 0
DWIDTH 6 0
BBX 6 8 -1 0
BITMAP
3C
6C
FC
6C
6C
6C
6C
6C
ENDCHAR
STARTCHAR florin
ENCODING -1
SWIDTH 560 0
DWIDTH 6 0
BBX 6 10 -1 -2
BITMAP
0C
18
30
78
30
30
30
20
60
C0
ENDCHAR
STARTCHAR four
ENCODING 52
SWIDTH 560 0
DWIDTH 5 0
BBX 5 6 0 0
BITMAP
10
30
50
F8
30
30
ENDCHAR
STARTCHAR fraction
ENCODING -1
SWIDTH 160 0
DWIDTH 4 0
BBX 3 8 0 0
BITMAP
20
20
60
40
40
C0
80
80
ENDCHAR
STARTCHAR g
ENCODING 103
SWIDTH 660 0
DWIDTH 5 0
BBX 4 6 0 -1
BITMAP
70
B0
B0
70
30
60
ENDCHAR
STARTCHAR germandbls
ENCODING 223
SWIDTH 600 0
DWIDTH 6 0
BBX 5 6 0 0
BITMAP
F0
D8
F0
D8
D8
D0
ENDCHAR
STARTCHAR grave
ENCODING -1
SWIDTH 420 0
DWIDTH 5 0
BBX 3 2 0 7
BITMAP
C0
60
ENDCHAR
STARTCHAR greater
ENCODING 62
SWIDTH 600 0
DWIDTH 6 0
BBX 5 5 0 0
BITMAP
E0
30
18
30
E0
ENDCHAR
STARTCHAR guillemotleft
ENCODING 171
SWIDTH 460 0
DWIDTH 5 0
BBX 4 3 0 1
BITMAP
50
F0
50
ENDCHAR
STARTCHAR guillemotright
ENCODING 187
SWIDTH 460 0
DWIDTH 5 0
BBX 4 3 0 1
BITMAP
A0
F0
A0
ENDCHAR
STARTCHAR guilsinglleft
ENCODING -1
SWIDTH 240 0
DWIDTH 3 0
BBX 2 3 0 2
BITMAP
40
80
40
ENDCHAR
STARTCHAR guilsinglright
ENCODING -1
SWIDTH 240 0
DWIDTH 3 0
BBX 2 3 0 2
BITMAP
80
40
80
ENDCHAR
STARTCHAR h
ENCODING 104
SWIDTH 600 0
DWIDTH 5 0
BBX 4 7 0 0
BITMAP
C0
C0
E0
D0
D0
D0
D0
ENDCHAR
STARTCHAR hungarumlaut
ENCODING -1
SWIDTH 700 0
DWIDTH 8 0
BBX 5 2 1 7
BITMAP
48
90
ENDCHAR
STARTCHAR hyphen
ENCODING 173
SWIDTH 420 0
DWIDTH 3 0
BBX 3 1 0 2
BITMAP
E0
ENDCHAR
STARTCHAR i
ENCODING 105
SWIDTH 240 0
DWIDTH 2 0
BBX 1 7 0 0
BITMAP
80
00
80
80
80
80
80
ENDCHAR
STARTCHAR iacute
ENCODING 237
SWIDTH 240 0
DWIDTH 2 0
BBX 3 8 -1 0
BITMAP
60
C0
00
40
40
40
40
40
ENDCHAR
STARTCHAR icircumflex
ENCODING 238
SWIDTH 240 0
DWIDTH 2 0
BBX 3 8 -1 0
BITMAP
40
E0
00
40
40
40
40
40
ENDCHAR
STARTCHAR idieresis
ENCODING 239
SWIDTH 240 0
DWIDTH 2 0
BBX 3 8 -1 0
BITMAP
A0
A0
00
40
40
40
40
40
ENDCHAR
STARTCHAR igrave
ENCODING 236
SWIDTH 240 0
DWIDTH 2 0
BBX 3 8 -1 0
BITMAP
C0
60
00
40
40
40
40
40
ENDCHAR
STARTCHAR j
ENCODING 106
SWIDTH 260 0
DWIDTH 2 0
BBX 2 8 -1 -1
BITMAP
40
00
40
40
40
40
40
C0
ENDCHAR
STARTCHAR k
ENCODING 107
SWIDTH 580 0
DWIDTH 5 0
BBX 5 7 0 0
BITMAP
C0
C0
D0
E0
E0
F0
D8
ENDCHAR
STARTCHAR l
ENCODING 108
SWIDTH 240 0
DWIDTH 2 0
BBX 1 7 0 0
BITMAP
80
80
80
80
80
80
80
ENDCHAR
STARTCHAR less
ENCODING 60
SWIDTH 600 0
DWIDTH 6 0
BBX 5 5 0 0
BITMAP
38
60
C0
60
38
ENDCHAR
STARTCHAR logicalnot
ENCODING 172
SWIDTH 600 0
DWIDTH 5 0
BBX 4 2 0 2
BITMAP
F0
10
ENDCHAR
STARTCHAR lslash
ENCODING -1
SWIDTH 320 0
DWIDTH 3 0
BBX 4 8 -1 0
BITMAP
60
60
70
60
E0
60
60
60
ENDCHAR
STARTCHAR m
ENCODING 109
SWIDTH 940 0
DWIDTH 7 0
BBX 6 5 0 0
BITMAP
E8
D4
D4
D4
D4
ENDCHAR
STARTCHAR macron
ENCODING 175
SWIDTH 420 0
DWIDTH 3 0
BBX 3 1 0 5
BITMAP
E0
ENDCHAR
STARTCHAR minus
ENCODING 45
SWIDTH 600 0
DWIDTH 6 0
BBX 4 1 1 2
BITMAP
F0
ENDCHAR
STARTCHAR mu
ENCODING 181
SWIDTH 576 0
DWIDTH 5 0
BBX 4 7 0 -2
BITMAP
B0
B0
B0
B0
D0
80
80
ENDCHAR
STARTCHAR multiply
ENCODING 215
SWIDTH 600 0
DWIDTH 5 0
BBX 5 4 0 1
BITMAP
D8
70
70
D8
ENDCHAR
STARTCHAR n
ENCODING 110
SWIDTH 600 0
DWIDTH 5 0
BBX 4 5 0 0
BITMAP
E0
D0
D0
D0
D0
ENDCHAR
STARTCHAR nine
ENCODING 57
SWIDTH 560 0
DWIDTH 5 0
BBX 4 6 0 0
BITMAP
60
B0
B0
70
20
C0
ENDCHAR
STARTCHAR ntilde
ENCODING 241
SWIDTH 600 0
DWIDTH 5 0
BBX 4 8 0 0
BITMAP
50
E0
00
E0
D0
D0
D0
D0
ENDCHAR
STARTCHAR numbersign
ENCODING 35
SWIDTH 600 0
DWIDTH 6 0
BBX 6 6 0 0
BITMAP
28
FC
50
F8
A0
A0
ENDCHAR
STARTCHAR o
ENCODING 111
SWIDTH 640 0
DWIDTH 6 0
BBX 5 5 0 0
BITMAP
70
D8
D8
D8
70
ENDCHAR
STARTCHAR oacute
ENCODING 243
SWIDTH 640 0
DWIDTH 6 0
BBX 5 8 0 0
BITMAP
30
60
00
70
D8
D8
D8
70
ENDCHAR
STARTCHAR ocircumflex
ENCODING 244
SWIDTH 640 0
DWIDTH 6 0
BBX 5 8 0 0
BITMAP
20
70
00
70
D8
D8
D8
70
ENDCHAR
STARTCHAR odieresis
ENCODING 246
SWIDTH 640 0
DWIDTH 6 0
BBX 5 8 0 0
BITMAP
50
50
00
70
D8
D8
D8
70
ENDCHAR
STARTCHAR oe
ENCODING -1
SWIDTH 1080 0
DWIDTH 10 0
BBX 9 6 0 0
BITMAP
7700
FD80
CF80
CC00
FF80
7700
ENDCHAR
STARTCHAR ogonek
ENCODING -1
SWIDTH 340 0
DWIDTH 4 0
BBX 3 3 1 -2
BITMAP
40
80
60
ENDCHAR
STARTCHAR ograve
ENCODING 242
SWIDTH 640 0
DWIDTH 6 0
BBX 5 8 0 0
BITMAP
60
30
00
70
D8
D8
D8
70
ENDCHAR
STARTCHAR one
ENCODING 49
SWIDTH 560 0
DWIDTH 5 0
BBX 3 6 0 0
BITMAP
E0
60
60
60
60
60
ENDCHAR
STARTCHAR onehalf
ENCODING 189
SWIDTH 840 0
DWIDTH 7 0
BBX 6 6 0 0
BITMAP
C4
48
5C
74
48
9C
ENDCHAR
STARTCHAR onequarter
ENCODING 188
SWIDTH 840 0
DWIDTH 7 0
BBX 7 6 0 0
BITMAP
C4
48
54
6C
5E
84
ENDCHAR
STARTCHAR onesuperior
ENCODING 185
SWIDTH 336 0
DWIDTH 2 0
BBX 2 4 -1 2
BITMAP
C0
40
40
40
ENDCHAR
STARTCHAR ordfeminine
ENCODING 170
SWIDTH 360 0
DWIDTH 4 0
BBX 3 5 0 1
BITMAP
C0
60
E0
00
E0
ENDCHAR
STARTCHAR ordmasculine
ENCODING 186
SWIDTH 360 0
DWIDTH 4 0
BBX 3 5 0 1
BITMAP
E0
A0
E0
00
E0
ENDCHAR
STARTCHAR oslash
ENCODING 248
SWIDTH 660 0
DWIDTH 6 0
BBX 5 7 0 -1
BITMAP
08
70
D8
F8
D8
70
80
ENDCHAR
STARTCHAR otilde
ENCODING 245
SWIDTH 640 0
DWIDTH 6 0
BBX 5 8 0 0
BITMAP
28
70
00
70
D8
D8
D8
70
ENDCHAR
STARTCHAR p
ENCODING 112
SWIDTH 660 0
DWIDTH 6 0
BBX 5 7 0 -2
BITMAP
F0
D8
D8
D8
F0
C0
C0
ENDCHAR
STARTCHAR paragraph
ENCODING 182
SWIDTH 600 0
DWIDTH 5 0
BBX 4 7 0 -1
BITMAP
70
D0
D0
D0
50
50
50
ENDCHAR
STARTCHAR parenleft
ENCODING 40
SWIDTH 380 0
DWIDTH 3 0
BBX 3 7 0 -1
BITMAP
60
C0
C0
C0
C0
C0
60
ENDCHAR
STARTCHAR parenright
ENCODING 41
SWIDTH 380 0
DWIDTH 3 0
BBX 3 7 -1 -1
BITMAP
C0
60
60
60
60
60
C0
ENDCHAR
STARTCHAR percent
ENCODING 37
SWIDTH 860 0
DWIDTH 9 0
BBX 8 6 0 0
BITMAP
64
D8
68
16
2D
26
ENDCHAR
STARTCHAR period
ENCODING 46
SWIDTH 280 0
DWIDTH 2 0
BBX 1 2 0 0
BITMAP
80
80
ENDCHAR
STARTCHAR periodcentered
ENCODING 183
SWIDTH 280 0
DWIDTH 2 0
BBX 1 1 0 2
BITMAP
80
ENDCHAR
STARTCHAR perthousand
ENCODING -1
SWIDTH 1280 0
DWIDTH 17 0
BBX 16 8 0 0
BITMAP
7200
DA00
DC00
7400
0B8E
0EDB
16DB
138E
ENDCHAR
STARTCHAR plus
ENCODING 43
SWIDTH 600 0
DWIDTH 5 0
BBX 4 5 0 0
BITMAP
20
20
F0
20
20
ENDCHAR
STARTCHAR plusminus
ENCODING 177
SWIDTH 600 0
DWIDTH 5 0
BBX 4 5 0 0
BITMAP
20
F0
20
00
F0
ENDCHAR
STARTCHAR q
ENCODING 113
SWIDTH 660 0
DWIDTH 6 0
BBX 5 7 0 -2
BITMAP
78
D8
D8
D8
78
18
18
ENDCHAR
STARTCHAR question
ENCODING 63
SWIDTH 560 0
DWIDTH 5 0
BBX 4 6 0 0
BITMAP
60
B0
20
20
00
20
ENDCHAR
STARTCHAR questiondown
ENCODING 191
SWIDTH 560 0
DWIDTH 5 0
BBX 4 7 0 -2
BITMAP
20
00
20
60
C0
C0
70
ENDCHAR
STARTCHAR quotedbl
ENCODING 34
SWIDTH 360 0
DWIDTH 3 0
BBX 3 2 0 4
BITMAP
A0
A0
ENDCHAR
STARTCHAR quotedblbase
ENCODING -1
SWIDTH 480 0
DWIDTH 6 0
BBX 5 3 0 -2
BITMAP
D8
48
90
ENDCHAR
STARTCHAR quotedblleft
ENCODING -1
SWIDTH 480 0
DWIDTH 6 0
BBX 5 3 0 5
BITMAP
48
90
D8
ENDCHAR
STARTCHAR quotedblright
ENCODING -1
SWIDTH 480 0
DWIDTH 6 0
BBX 5 3 0 5
BITMAP
D8
48
90
ENDCHAR
STARTCHAR quoteleft
ENCODING 96
SWIDTH 280 0
DWIDTH 2 0
BBX 2 2 0 4
BITMAP
C0
C0
ENDCHAR
STARTCHAR quoteright
ENCODING 39
SWIDTH 280 0
DWIDTH 2 0
BBX 2 2 0 4
BITMAP
40
80
ENDCHAR
STARTCHAR quotesinglbase
ENCODING -1
SWIDTH 280 0
DWIDTH 3 0
BBX 2 3 0 -2
BITMAP
C0
40
80
ENDCHAR
STARTCHAR quotesingle
ENCODING -1
SWIDTH 220 0
DWIDTH 2 0
BBX 1 3 0 5
BITMAP
80
80
80
ENDCHAR
STARTCHAR r
ENCODING 114
SWIDTH 320 0
DWIDTH 3 0
BBX 3 5 0 0
BITMAP
A0
C0
C0
C0
C0
ENDCHAR
STARTCHAR registered
ENCODING 174
SWIDTH 740 0
DWIDTH 8 0
BBX 6 7 1 0
BITMAP
30
48
B4
B4
AC
48
30
ENDCHAR
STARTCHAR ring
ENCODING -1
SWIDTH 360 0
DWIDTH 5 0
BBX 3 3 1 5
BITMAP
40
A0
40
ENDCHAR
STARTCHAR s
ENCODING 115
SWIDTH 440 0
DWIDTH 5 0
BBX 4 5 0 0
BITMAP
70
C0
F0
30
E0
ENDCHAR
STARTCHAR scaron
ENCODING -1
SWIDTH 440 0
DWIDTH 6 0
BBX 5 9 0 0
BITMAP
D0
60
00
78
D8
F0
38
D8
F0
ENDCHAR
STARTCHAR section
ENCODING 167
SWIDTH 560 0
DWIDTH 5 0
BBX 4 7 0 -1
BITMAP
70
C0
E0
90
70
30
E0
ENDCHAR
STARTCHAR semicolon
ENCODING 59
SWIDTH 280 0
DWIDTH 2 0
BBX 2 6 -1 -1
BITMAP
40
40
00
40
40
80
ENDCHAR
STARTCHAR seven
ENCODING 55
SWIDTH 560 0
DWIDTH 5 0
BBX 4 6 0 0
BITMAP
F0
30
20
60
60
60
ENDCHAR
STARTCHAR six
ENCODING 54
SWIDTH 560 0
DWIDTH 5 0
BBX 4 6 0 0
BITMAP
30
40
E0
D0
D0
60
ENDCHAR
STARTCHAR slash
ENCODING 47
SWIDTH 460 0
DWIDTH 4 0
BBX 4 7 0 -1
BITMAP
10
20
20
40
40
80
80
ENDCHAR
STARTCHAR space
ENCODING 32
SWIDTH 280 0
DWIDTH 2 0
BBX 1 1 0 0
BITMAP
00
ENDCHAR
STARTCHAR space
ENCODING 160
SWIDTH 280 0
DWIDTH 2 0
BBX 1 1 0 0
BITMAP
00
ENDCHAR
STARTCHAR sterling
ENCODING 163
SWIDTH 560 0
DWIDTH 5 0
BBX 5 6 0 0
BITMAP
70
D0
C0
F0
48
F0
ENDCHAR
STARTCHAR t
ENCODING 116
SWIDTH 300 0
DWIDTH 2 0
BBX 3 6 -1 0
BITMAP
40
E0
40
40
40
60
ENDCHAR
STARTCHAR thorn
ENCODING 254
SWIDTH 660 0
DWIDTH 6 0
BBX 5 8 0 -2
BITMAP
C0
F0
D8
D8
D8
F0
C0
C0
ENDCHAR
STARTCHAR three
ENCODING 51
SWIDTH 560 0
DWIDTH 5 0
BBX 4 6 0 0
BITMAP
60
B0
60
30
B0
60
ENDCHAR
STARTCHAR threequarters
ENCODING 190
SWIDTH 840 0
DWIDTH 7 0
BBX 7 6 0 0
BITMAP
E4
68
34
EC
5E
84
ENDCHAR
STARTCHAR threesuperior
ENCODING 179
SWIDTH 336 0
DWIDTH 2 0
BBX 3 4 -1 2
BITMAP
E0
60
20
C0
ENDCHAR
STARTCHAR tilde
ENCODING -1
SWIDTH 480 0
DWIDTH 5 0
BBX 4 2 0 7
BITMAP
50
A0
ENDCHAR
STARTCHAR trademark
ENCODING -1
SWIDTH 1000 0
DWIDTH 11 0
BBX 9 4 1 4
BITMAP
E880
4D80
4A80
4A80
ENDCHAR
STARTCHAR two
ENCODING 50
SWIDTH 560 0
DWIDTH 5 0
BBX 4 6 0 0
BITMAP
60
B0
30
60
C0
F0
ENDCHAR
STARTCHAR twosuperior
ENCODING 178
SWIDTH 336 0
DWIDTH 2 0
BBX 3 4 -1 2
BITMAP
C0
60
40
E0
ENDCHAR
STARTCHAR u
ENCODING 117
SWIDTH 600 0
DWIDTH 5 0
BBX 4 5 0 0
BITMAP
B0
B0
B0
B0
50
ENDCHAR
STARTCHAR uacute
ENCODING 250
SWIDTH 600 0
DWIDTH 5 0
BBX 4 8 0 0
BITMAP
30
60
00
B0
B0
B0
B0
50
ENDCHAR
STARTCHAR ucircumflex
ENCODING 251
SWIDTH 600 0
DWIDTH 5 0
BBX 4 8 0 0
BITMAP
20
70
00
B0
B0
B0
B0
50
ENDCHAR
STARTCHAR udieresis
ENCODING 252
SWIDTH 600 0
DWIDTH 5 0
BBX 4 8 0 0
BITMAP
50
50
00
B0
B0
B0
B0
50
ENDCHAR
STARTCHAR ugrave
ENCODING 249
SWIDTH 600 0
DWIDTH 5 0
BBX 4 8 0 0
BITMAP
C0
60
00
B0
B0
B0
B0
50
ENDCHAR
STARTCHAR underscore
ENCODING 95
SWIDTH 500 0
DWIDTH 4 0
BBX 4 1 0 -1
BITMAP
F0
ENDCHAR
STARTCHAR v
ENCODING 118
SWIDTH 560 0
DWIDTH 5 0
BBX 4 5 0 0
BITMAP
D0
D0
D0
60
20
ENDCHAR
STARTCHAR w
ENCODING 119
SWIDTH 800 0
DWIDTH 6 0
BBX 6 5 0 0
BITMAP
D4
D4
D4
78
50
ENDCHAR
STARTCHAR x
ENCODING 120
SWIDTH 560 0
DWIDTH 5 0
BBX 4 5 0 0
BITMAP
90
F0
60
F0
90
ENDCHAR
STARTCHAR y
ENCODING 121
SWIDTH 580 0
DWIDTH 5 0
BBX 4 6 0 -1
BITMAP
D0
D0
D0
60
60
C0
ENDCHAR
STARTCHAR yacute
ENCODING 253
SWIDTH 580 0
DWIDTH 5 0
BBX 4 9 0 -1
BITMAP
30
60
00
D0
D0
D0
60
60
C0
ENDCHAR
STARTCHAR ydieresis
ENCODING 255
SWIDTH 580 0
DWIDTH 5 0
BBX 4 9 0 -1
BITMAP
50
50
00
D0
D0
D0
60
60
C0
ENDCHAR
STARTCHAR yen
ENCODING 165
SWIDTH 560 0
DWIDTH 6 0
BBX 5 6 0 0
BITMAP
D8
70
F8
20
F8
20
ENDCHAR
STARTCHAR z
ENCODING 122
SWIDTH 460 0
DWIDTH 4 0
BBX 3 5 0 0
BITMAP
E0
60
40
C0
E0
ENDCHAR
STARTCHAR zcaron
ENCODING -1
SWIDTH 460 0
DWIDTH 5 0
BBX 4 9 0 0
BITMAP
D0
60
00
F0
F0
20
60
F0
F0
ENDCHAR
STARTCHAR zero
ENCODING 48
SWIDTH 560 0
DWIDTH 5 0
BBX 4 6 0 0
BITMAP
60
D0
D0
D0
D0
60
ENDCHAR
ENDFONT
